<svg xmlns="http://www.w3.org/2000/svg" viewBox="0 0 600 380">
  <defs>
    <marker id="arrowhead" markerWidth="10" markerHeight="7" refX="9" refY="3.5" orient="auto">
      <polygon points="0 0, 10 3.5, 0 7" fill="#333"/>
    </marker>
  </defs>
  
  <!-- Background -->
  <rect width="600" height="380" fill="#ffffff"/>
  
  <!-- Title -->
  <text x="300" y="28" text-anchor="middle" font-family="Arial" font-size="16" font-weight="bold" fill="#1a1a2e">10MHz Sine to Square Wave Converter</text>
  
  <!-- +3.3V Rail -->
  <line x1="350" y1="55" x2="350" y2="75" stroke="#e94560" stroke-width="2"/>
  <text x="350" y="50" text-anchor="middle" font-family="Arial" font-size="12" fill="#e94560" font-weight="bold">+3.3V</text>
  
  <!-- R1 - Pull-up resistor -->
  <rect x="340" y="75" width="20" height="50" fill="none" stroke="#333" stroke-width="2"/>
  <text x="375" y="95" font-family="Arial" font-size="11" fill="#333">R1</text>
  <text x="375" y="108" font-family="Arial" font-size="10" fill="#666">10kΩ</text>
  <line x1="350" y1="125" x2="350" y2="145" stroke="#333" stroke-width="2"/>
  
  <!-- Comparator Symbol (Triangle) -->
  <polygon points="300,145 300,245 400,195" fill="#f8f8f8" stroke="#0f3460" stroke-width="2.5"/>
  <text x="325" y="188" font-family="Arial" font-size="12" fill="#0f3460" font-weight="bold">+</text>
  <text x="325" y="212" font-family="Arial" font-size="12" fill="#0f3460" font-weight="bold">−</text>
  <text x="320" y="260" font-family="Arial" font-size="11" fill="#0f3460" font-weight="bold">LT1016</text>
  <text x="320" y="273" font-family="Arial" font-size="10" fill="#0f3460">or MAX999</text>
  
  <!-- Connection from R1 to output line -->
  <circle cx="350" cy="145" r="3" fill="#333"/>
  <line x1="350" y1="145" x2="450" y2="145" stroke="#333" stroke-width="2"/>
  <line x1="450" y1="145" x2="450" y2="195" stroke="#333" stroke-width="2"/>
  <circle cx="450" cy="195" r="3" fill="#333"/>
  
  <!-- Output connection from comparator -->
  <line x1="400" y1="195" x2="520" y2="195" stroke="#333" stroke-width="2"/>

  <!-- Junction for LED indicator -->
  <circle cx="480" cy="195" r="3" fill="#333"/>

  <!-- Line down to LED -->
  <line x1="480" y1="195" x2="480" y2="220" stroke="#333" stroke-width="2"/>

  <!-- R4 - LED current limiting resistor -->
  <rect x="470" y="220" width="20" height="35" fill="none" stroke="#333" stroke-width="2"/>
  <text x="497" y="232" font-family="Arial" font-size="10" fill="#333">R4</text>
  <text x="497" y="245" font-family="Arial" font-size="9" fill="#666">1kΩ</text>

  <!-- Line to LED -->
  <line x1="480" y1="255" x2="480" y2="270" stroke="#333" stroke-width="2"/>

  <!-- Blue LED symbol -->
  <polygon points="470,270 490,270 480,290" fill="#3b82f6" stroke="#333" stroke-width="1.5"/>
  <line x1="470" y1="290" x2="490" y2="290" stroke="#333" stroke-width="2"/>
  <text x="500" y="280" font-family="Arial" font-size="9" fill="#2563eb" font-weight="bold">BLUE</text>
  <text x="500" y="292" font-family="Arial" font-size="8" fill="#666">(signal)</text>

  <!-- LED to GND -->
  <line x1="480" y1="290" x2="480" y2="310" stroke="#333" stroke-width="2"/>
  <line x1="470" y1="310" x2="490" y2="310" stroke="#333" stroke-width="2"/>
  <line x1="474" y1="316" x2="486" y2="316" stroke="#333" stroke-width="2"/>
  <line x1="478" y1="322" x2="482" y2="322" stroke="#333" stroke-width="2"/>

  <!-- Output label -->
  <text x="530" y="190" font-family="Arial" font-size="11" fill="#333" font-weight="bold">10MHz Square</text>
  <text x="530" y="205" font-family="Arial" font-size="10" fill="#666">→ Pico GP3</text>
  <circle cx="520" cy="195" r="5" fill="#4ade80" stroke="#333" stroke-width="1.5"/>
  
  <!-- Input section -->
  <!-- R2 - Series resistor -->
  <line x1="80" y1="175" x2="130" y2="175" stroke="#333" stroke-width="2"/>
  <rect x="130" y="165" width="40" height="20" fill="none" stroke="#333" stroke-width="2"/>
  <text x="150" y="158" text-anchor="middle" font-family="Arial" font-size="11" fill="#333">R2</text>
  <text x="150" y="200" text-anchor="middle" font-family="Arial" font-size="10" fill="#666">100Ω</text>
  <line x1="170" y1="175" x2="210" y2="175" stroke="#333" stroke-width="2"/>
  
  <!-- Junction point after R2 -->
  <circle cx="210" cy="175" r="3" fill="#333"/>
  
  <!-- C1 - AC coupling capacitor -->
  <line x1="210" y1="175" x2="210" y2="215" stroke="#333" stroke-width="2"/>
  <line x1="200" y1="215" x2="220" y2="215" stroke="#333" stroke-width="3"/>
  <line x1="200" y1="223" x2="220" y2="223" stroke="#333" stroke-width="3"/>
  <line x1="210" y1="223" x2="210" y2="280" stroke="#333" stroke-width="2"/>
  <text x="228" y="215" font-family="Arial" font-size="11" fill="#333">C1</text>
  <text x="228" y="228" font-family="Arial" font-size="10" fill="#666">100nF</text>
  
  <!-- Line from junction to + input -->
  <line x1="210" y1="175" x2="300" y2="175" stroke="#333" stroke-width="2"/>
  
  <!-- Threshold voltage divider connection -->
  <circle cx="250" cy="175" r="3" fill="#333"/>
  <line x1="250" y1="175" x2="250" y2="215" stroke="#333" stroke-width="2"/>
  <circle cx="250" cy="215" r="3" fill="#333"/>
  
  <!-- Line to - input -->
  <line x1="250" y1="215" x2="300" y2="215" stroke="#333" stroke-width="2"/>
  
  <!-- R3 - Threshold resistor -->
  <line x1="250" y1="215" x2="250" y2="235" stroke="#333" stroke-width="2"/>
  <rect x="240" y="235" width="20" height="50" fill="none" stroke="#333" stroke-width="2"/>
  <line x1="250" y1="285" x2="250" y2="310" stroke="#333" stroke-width="2"/>
  <text x="268" y="255" font-family="Arial" font-size="11" fill="#333">R3</text>
  <text x="268" y="268" font-family="Arial" font-size="10" fill="#666">10kΩ</text>
  
  <!-- Ground symbols -->
  <line x1="200" y1="280" x2="220" y2="280" stroke="#333" stroke-width="2"/>
  <line x1="204" y1="286" x2="216" y2="286" stroke="#333" stroke-width="2"/>
  <line x1="208" y1="292" x2="212" y2="292" stroke="#333" stroke-width="2"/>
  <text x="210" y="308" text-anchor="middle" font-family="Arial" font-size="9" fill="#666">GND</text>
  
  <line x1="240" y1="310" x2="260" y2="310" stroke="#333" stroke-width="2"/>
  <line x1="244" y1="316" x2="256" y2="316" stroke="#333" stroke-width="2"/>
  <line x1="248" y1="322" x2="252" y2="322" stroke="#333" stroke-width="2"/>
  <text x="250" y="338" text-anchor="middle" font-family="Arial" font-size="9" fill="#666">GND</text>
  
  <!-- Input label -->
  <text x="40" y="165" font-family="Arial" font-size="11" fill="#333" font-weight="bold">10MHz</text>
  <text x="40" y="180" font-family="Arial" font-size="10" fill="#666">Sine Wave</text>
  <text x="40" y="195" font-family="Arial" font-size="10" fill="#666">(~1Vpp)</text>
  
  <!-- Component box -->
  <rect x="20" y="348" width="560" height="28" fill="#f5f5f5" stroke="#ddd" stroke-width="1" rx="4"/>
  <text x="300" y="366" text-anchor="middle" font-family="Arial" font-size="10" fill="#333">
    <tspan font-weight="bold">Components:</tspan> R1, R3 = 10kΩ | R2 = 100Ω | R4 = 1kΩ | C1 = 100nF | U1 = LT1016/MAX999 | Blue LED
  </text>
</svg>
