<svg xmlns="http://www.w3.org/2000/svg" viewBox="0 0 650 350">
  <!-- Background -->
  <rect width="650" height="350" fill="#ffffff"/>
  
  <!-- Title -->
  <text x="325" y="28" text-anchor="middle" font-family="Arial" font-size="16" font-weight="bold" fill="#1a1a2e">Power Supply Configuration</text>
  
  <!-- AC/DC Adapter Box -->
  <rect x="30" y="80" width="120" height="80" fill="#fff3e0" stroke="#e65100" stroke-width="2" rx="8"/>
  <text x="90" y="105" text-anchor="middle" font-family="Arial" font-size="12" fill="#e65100" font-weight="bold">AC/DC Adapter</text>
  <text x="90" y="125" text-anchor="middle" font-family="Arial" font-size="14" fill="#333" font-weight="bold">15V 3A</text>
  <text x="90" y="145" text-anchor="middle" font-family="Arial" font-size="10" fill="#666">(45W minimum)</text>
  
  <!-- +15V line to FE-5680A -->
  <line x1="150" y1="100" x2="250" y2="100" stroke="#e94560" stroke-width="3"/>
  <text x="200" y="92" text-anchor="middle" font-family="Arial" font-size="11" fill="#e94560" font-weight="bold">+15V</text>
  
  <!-- Junction point for 15V -->
  <circle cx="250" cy="100" r="4" fill="#e94560"/>
  
  <!-- Line to buck converter -->
  <line x1="250" y1="100" x2="250" y2="180" stroke="#e94560" stroke-width="2"/>
  <line x1="250" y1="180" x2="280" y2="180" stroke="#e94560" stroke-width="2"/>
  
  <!-- Line to FE-5680A 15V -->
  <line x1="250" y1="100" x2="400" y2="100" stroke="#e94560" stroke-width="3"/>
  
  <!-- DC-DC Buck Converter Box -->
  <rect x="280" y="150" width="120" height="60" fill="#e3f2fd" stroke="#1565c0" stroke-width="2" rx="8"/>
  <text x="340" y="172" text-anchor="middle" font-family="Arial" font-size="11" fill="#1565c0" font-weight="bold">LM2596</text>
  <text x="340" y="188" text-anchor="middle" font-family="Arial" font-size="11" fill="#1565c0" font-weight="bold">Buck Module</text>
  <text x="340" y="202" text-anchor="middle" font-family="Arial" font-size="10" fill="#666">15V → 5V</text>
  
  <!-- +5V output from buck -->
  <line x1="400" y1="180" x2="480" y2="180" stroke="#4caf50" stroke-width="3"/>
  <text x="440" y="172" text-anchor="middle" font-family="Arial" font-size="11" fill="#4caf50" font-weight="bold">+5V</text>
  
  <!-- Junction for 5V -->
  <circle cx="480" cy="180" r="4" fill="#4caf50"/>
  
  <!-- 5V to FE-5680A -->
  <line x1="480" y1="180" x2="480" y2="130" stroke="#4caf50" stroke-width="2"/>
  <line x1="480" y1="130" x2="400" y2="130" stroke="#4caf50" stroke-width="2"/>
  
  <!-- 5V to Pico -->
  <line x1="480" y1="180" x2="480" y2="250" stroke="#4caf50" stroke-width="2"/>
  <line x1="480" y1="250" x2="540" y2="250" stroke="#4caf50" stroke-width="2"/>
  
  <!-- FE-5680A Box -->
  <rect x="400" y="60" width="160" height="100" fill="#fce4ec" stroke="#c2185b" stroke-width="2" rx="8"/>
  <text x="480" y="85" text-anchor="middle" font-family="Arial" font-size="12" fill="#c2185b" font-weight="bold">FE-5680A</text>
  <text x="480" y="102" text-anchor="middle" font-family="Arial" font-size="11" fill="#333">Rubidium Oscillator</text>
  <!-- Pin labels -->
  <text x="410" y="118" font-family="Arial" font-size="9" fill="#666">Pin 1: +15V →</text>
  <text x="410" y="130" font-family="Arial" font-size="9" fill="#666">Pin 3: +5V →</text>
  <text x="410" y="142" font-family="Arial" font-size="9" fill="#666">Pin 2,4: GND →</text>
  
  <!-- Pico Box -->
  <rect x="540" y="210" width="100" height="80" fill="#e8f5e9" stroke="#2e7d32" stroke-width="2" rx="8"/>
  <text x="590" y="235" text-anchor="middle" font-family="Arial" font-size="11" fill="#2e7d32" font-weight="bold">Pico 2-W</text>
  <text x="590" y="252" text-anchor="middle" font-family="Arial" font-size="10" fill="#333">VSYS ←</text>
  <text x="590" y="268" text-anchor="middle" font-family="Arial" font-size="10" fill="#333">GND ←</text>
  <text x="590" y="284" text-anchor="middle" font-family="Arial" font-size="9" fill="#666">(or USB power)</text>
  
  <!-- Ground lines -->
  <line x1="150" y1="140" x2="200" y2="140" stroke="#333" stroke-width="2"/>
  <text x="175" y="155" text-anchor="middle" font-family="Arial" font-size="10" fill="#333">GND</text>
  
  <!-- Ground bus -->
  <line x1="200" y1="140" x2="200" y2="300" stroke="#333" stroke-width="2"/>
  <line x1="200" y1="300" x2="560" y2="300" stroke="#333" stroke-width="2"/>
  
  <!-- Ground connections -->
  <line x1="340" y1="210" x2="340" y2="300" stroke="#333" stroke-width="2"/>
  <circle cx="340" cy="300" r="3" fill="#333"/>
  
  <line x1="480" y1="160" x2="520" y2="160" stroke="#333" stroke-width="2"/>
  <line x1="520" y1="160" x2="520" y2="300" stroke="#333" stroke-width="2"/>
  <circle cx="520" cy="300" r="3" fill="#333"/>
  
  <line x1="560" y1="270" x2="560" y2="300" stroke="#333" stroke-width="2"/>
  <circle cx="560" cy="300" r="3" fill="#333"/>
  
  <!-- Warning box -->
  <rect x="30" y="180" width="180" height="75" fill="#fff8e1" stroke="#f9a825" stroke-width="2" rx="4"/>
  <text x="120" y="200" text-anchor="middle" font-family="Arial" font-size="11" fill="#f57f17" font-weight="bold">⚠️ CAUTION</text>
  <text x="120" y="218" text-anchor="middle" font-family="Arial" font-size="9" fill="#333">• FE-5680A draws ~2A @ 15V</text>
  <text x="120" y="232" text-anchor="middle" font-family="Arial" font-size="9" fill="#333">during 3-5 min warmup</text>
  <text x="120" y="246" text-anchor="middle" font-family="Arial" font-size="9" fill="#333">• Physics package runs HOT</text>
  
  <!-- Power requirements box -->
  <rect x="30" y="270" width="180" height="60" fill="#f5f5f5" stroke="#999" stroke-width="1" rx="4"/>
  <text x="120" y="290" text-anchor="middle" font-family="Arial" font-size="10" fill="#333" font-weight="bold">Power Requirements:</text>
  <text x="120" y="305" text-anchor="middle" font-family="Arial" font-size="9" fill="#666">Warmup: ~35W total</text>
  <text x="120" y="318" text-anchor="middle" font-family="Arial" font-size="9" fill="#666">Running: ~12W total</text>
</svg>
