<svg xmlns="http://www.w3.org/2000/svg" viewBox="0 0 800 600">
  <!-- Background -->
  <rect width="800" height="600" fill="#ffffff"/>
  
  <!-- Title -->
  <text x="400" y="28" text-anchor="middle" font-family="Arial" font-size="18" font-weight="bold" fill="#1a1a2e">CHRONOS-Rb Complete System Wiring</text>
  
  <!-- FE-5680A Box -->
  <rect x="30" y="80" width="200" height="220" fill="#fce4ec" stroke="#c2185b" stroke-width="2" rx="10"/>
  <text x="130" y="105" text-anchor="middle" font-family="Arial" font-size="14" fill="#c2185b" font-weight="bold">FE-5680A</text>
  <text x="130" y="122" text-anchor="middle" font-family="Arial" font-size="11" fill="#333">Rubidium Oscillator</text>
  
  <!-- FE-5680A Pins (DB-9 version) -->
  <text x="45" y="155" font-family="Arial" font-size="10" fill="#333" font-weight="bold">Pin 1:</text>
  <text x="90" y="155" font-family="Arial" font-size="10" fill="#e94560">+15V Input</text>
  <text x="45" y="172" font-family="Arial" font-size="10" fill="#333" font-weight="bold">Pin 3:</text>
  <text x="90" y="172" font-family="Arial" font-size="10" fill="#9c27b0">Lock Status</text>
  <text x="45" y="189" font-family="Arial" font-size="10" fill="#333" font-weight="bold">Pin 4:</text>
  <text x="90" y="189" font-family="Arial" font-size="10" fill="#4caf50">+5V Input</text>
  <text x="45" y="206" font-family="Arial" font-size="10" fill="#333" font-weight="bold">Pin 7:</text>
  <text x="90" y="206" font-family="Arial" font-size="10" fill="#2196f3">10MHz Out</text>
  <text x="45" y="223" font-family="Arial" font-size="10" fill="#333" font-weight="bold">1PPS:</text>
  <text x="90" y="223" font-family="Arial" font-size="10" fill="#ff9800">From divider</text>
  <text x="45" y="240" font-family="Arial" font-size="10" fill="#333" font-weight="bold">Pin 2,5:</text>
  <text x="95" y="240" font-family="Arial" font-size="10" fill="#333">GND</text>
  
  <!-- Output indicators on FE-5680A -->
  <circle cx="215" cy="185" r="6" fill="#2196f3"/>
  <circle cx="215" cy="202" r="6" fill="#ff9800"/>
  <circle cx="215" cy="219" r="6" fill="#9c27b0"/>
  
  <!-- Signal Conditioning Box -->
  <rect x="280" y="120" width="180" height="240" fill="#e3f2fd" stroke="#1565c0" stroke-width="2" rx="10"/>
  <text x="370" y="145" text-anchor="middle" font-family="Arial" font-size="12" fill="#1565c0" font-weight="bold">Signal Conditioning</text>
  
  <!-- 10MHz Comparator sub-box -->
  <rect x="295" y="160" width="150" height="55" fill="#bbdefb" stroke="#1976d2" stroke-width="1" rx="5"/>
  <text x="370" y="178" text-anchor="middle" font-family="Arial" font-size="10" fill="#1565c0" font-weight="bold">10MHz Comparator</text>
  <text x="370" y="193" text-anchor="middle" font-family="Arial" font-size="9" fill="#333">LT1016/MAX999</text>
  <text x="370" y="208" text-anchor="middle" font-family="Arial" font-size="9" fill="#666">Sine → Square</text>
  
  <!-- 1PPS Source sub-box -->
  <rect x="295" y="225" width="150" height="55" fill="#ffe0b2" stroke="#f57c00" stroke-width="1" rx="5"/>
  <text x="370" y="243" text-anchor="middle" font-family="Arial" font-size="10" fill="#e65100" font-weight="bold">1PPS Source</text>
  <text x="370" y="258" text-anchor="middle" font-family="Arial" font-size="9" fill="#333">From 10MHz divider</text>
  <text x="370" y="273" text-anchor="middle" font-family="Arial" font-size="9" fill="#666">or external GPS</text>
  
  <!-- Lock Status sub-box -->
  <rect x="295" y="290" width="150" height="55" fill="#e1bee7" stroke="#8e24aa" stroke-width="1" rx="5"/>
  <text x="370" y="308" text-anchor="middle" font-family="Arial" font-size="10" fill="#7b1fa2" font-weight="bold">Lock Level Shifter</text>
  <text x="370" y="323" text-anchor="middle" font-family="Arial" font-size="9" fill="#333">NPN (2N3904)</text>
  <text x="370" y="338" text-anchor="middle" font-family="Arial" font-size="9" fill="#666">HIGH=locked</text>
  
  <!-- Lines from FE-5680A to Signal Conditioning -->
  <line x1="221" y1="185" x2="295" y2="185" stroke="#2196f3" stroke-width="2"/>
  <line x1="221" y1="202" x2="260" y2="202" stroke="#ff9800" stroke-width="2"/>
  <line x1="260" y1="202" x2="260" y2="250" stroke="#ff9800" stroke-width="2"/>
  <line x1="260" y1="250" x2="295" y2="250" stroke="#ff9800" stroke-width="2"/>
  <line x1="221" y1="219" x2="250" y2="219" stroke="#9c27b0" stroke-width="2"/>
  <line x1="250" y1="219" x2="250" y2="315" stroke="#9c27b0" stroke-width="2"/>
  <line x1="250" y1="315" x2="295" y2="315" stroke="#9c27b0" stroke-width="2"/>
  
  <!-- Raspberry Pi Pico 2-W Box -->
  <rect x="520" y="80" width="250" height="320" fill="#e8f5e9" stroke="#2e7d32" stroke-width="2" rx="10"/>
  <text x="645" y="105" text-anchor="middle" font-family="Arial" font-size="14" fill="#2e7d32" font-weight="bold">Raspberry Pi Pico 2-W</text>
  
  <!-- GPIO Labels -->
  <text x="540" y="135" font-family="Arial" font-size="11" fill="#333" font-weight="bold">GPIO Pin Assignments:</text>
  
  <!-- Signal inputs -->
  <rect x="535" y="145" width="220" height="80" fill="#c8e6c9" stroke="#43a047" stroke-width="1" rx="4"/>
  <text x="545" y="163" font-family="Arial" font-size="10" fill="#333"><tspan font-weight="bold">GP2:</tspan> 1PPS Input</text>
  <text x="545" y="178" font-family="Arial" font-size="10" fill="#333"><tspan font-weight="bold">GP3:</tspan> 10MHz Input</text>
  <text x="545" y="193" font-family="Arial" font-size="10" fill="#333"><tspan font-weight="bold">GP4:</tspan> Lock Status Input</text>
  <text x="545" y="208" font-family="Arial" font-size="10" fill="#333"><tspan font-weight="bold">GP5:</tspan> Rb Enable (optional)</text>
  
  <!-- Input circles -->
  <circle cx="530" cy="170" r="5" fill="#ff9800"/>
  <circle cx="530" cy="185" r="5" fill="#2196f3"/>
  <circle cx="530" cy="200" r="5" fill="#9c27b0"/>
  
  <!-- LED outputs -->
  <rect x="535" y="235" width="220" height="75" fill="#fff9c4" stroke="#f9a825" stroke-width="1" rx="4"/>
  <text x="545" y="253" font-family="Arial" font-size="10" fill="#333"><tspan font-weight="bold">GP6:</tspan> LED Sync (Green)</text>
  <text x="545" y="268" font-family="Arial" font-size="10" fill="#333"><tspan font-weight="bold">GP7:</tspan> LED Network (Blue)</text>
  <text x="545" y="283" font-family="Arial" font-size="10" fill="#333"><tspan font-weight="bold">GP8:</tspan> LED Activity (Yellow)</text>
  <text x="545" y="298" font-family="Arial" font-size="10" fill="#333"><tspan font-weight="bold">GP9:</tspan> LED Error (Red)</text>
  
  <!-- Debug outputs -->
  <rect x="535" y="320" width="220" height="55" fill="#e1f5fe" stroke="#0288d1" stroke-width="1" rx="4"/>
  <text x="545" y="338" font-family="Arial" font-size="10" fill="#333"><tspan font-weight="bold">GP10:</tspan> Debug PPS Out</text>
  <text x="545" y="353" font-family="Arial" font-size="10" fill="#333"><tspan font-weight="bold">GP12/13:</tspan> I2C (OLED option)</text>
  <text x="545" y="368" font-family="Arial" font-size="10" fill="#333"><tspan font-weight="bold">VSYS:</tspan> 5V Power Input</text>
  
  <!-- Lines from Signal Conditioning to Pico -->
  <line x1="445" y1="185" x2="530" y2="185" stroke="#2196f3" stroke-width="2"/>
  <line x1="445" y1="250" x2="490" y2="250" stroke="#ff9800" stroke-width="2"/>
  <line x1="490" y1="250" x2="490" y2="170" stroke="#ff9800" stroke-width="2"/>
  <line x1="490" y1="170" x2="530" y2="170" stroke="#ff9800" stroke-width="2"/>
  <line x1="445" y1="315" x2="480" y2="315" stroke="#9c27b0" stroke-width="2"/>
  <line x1="480" y1="315" x2="480" y2="200" stroke="#9c27b0" stroke-width="2"/>
  <line x1="480" y1="200" x2="530" y2="200" stroke="#9c27b0" stroke-width="2"/>
  
  <!-- LED Circuit Box -->
  <rect x="520" y="420" width="250" height="100" fill="#fff8e1" stroke="#ff8f00" stroke-width="2" rx="10"/>
  <text x="645" y="445" text-anchor="middle" font-family="Arial" font-size="12" fill="#ff6f00" font-weight="bold">Status LEDs</text>
  
  <!-- LED diagram -->
  <text x="540" y="470" font-family="Arial" font-size="10" fill="#333">GP6-9 → 330Ω → LED → GND</text>
  
  <!-- LED symbols -->
  <circle cx="560" cy="495" r="8" fill="#4caf50" stroke="#333" stroke-width="1"/>
  <circle cx="600" cy="495" r="8" fill="#2196f3" stroke="#333" stroke-width="1"/>
  <circle cx="640" cy="495" r="8" fill="#ffeb3b" stroke="#333" stroke-width="1"/>
  <circle cx="680" cy="495" r="8" fill="#f44336" stroke="#333" stroke-width="1"/>
  <text x="560" y="512" text-anchor="middle" font-family="Arial" font-size="8" fill="#666">Sync</text>
  <text x="600" y="512" text-anchor="middle" font-family="Arial" font-size="8" fill="#666">Net</text>
  <text x="640" y="512" text-anchor="middle" font-family="Arial" font-size="8" fill="#666">Act</text>
  <text x="680" y="512" text-anchor="middle" font-family="Arial" font-size="8" fill="#666">Err</text>
  
  <!-- Power Supply indication -->
  <rect x="30" y="320" width="200" height="80" fill="#ffebee" stroke="#c62828" stroke-width="2" rx="10"/>
  <text x="130" y="345" text-anchor="middle" font-family="Arial" font-size="12" fill="#c62828" font-weight="bold">Power Supply</text>
  <text x="130" y="365" text-anchor="middle" font-family="Arial" font-size="10" fill="#333">15V 3A → FE-5680A</text>
  <text x="130" y="382" text-anchor="middle" font-family="Arial" font-size="10" fill="#333">5V (via buck) → Pico VSYS</text>
  
  <!-- Legend -->
  <rect x="30" y="420" width="200" height="100" fill="#f5f5f5" stroke="#999" stroke-width="1" rx="5"/>
  <text x="130" y="440" text-anchor="middle" font-family="Arial" font-size="11" fill="#333" font-weight="bold">Signal Legend</text>
  <line x1="45" y1="455" x2="75" y2="455" stroke="#2196f3" stroke-width="3"/>
  <text x="85" y="459" font-family="Arial" font-size="10" fill="#333">10MHz Reference</text>
  <line x1="45" y1="475" x2="75" y2="475" stroke="#ff9800" stroke-width="3"/>
  <text x="85" y="479" font-family="Arial" font-size="10" fill="#333">1PPS Timing</text>
  <line x1="45" y1="495" x2="75" y2="495" stroke="#9c27b0" stroke-width="3"/>
  <text x="85" y="499" font-family="Arial" font-size="10" fill="#333">Lock Status</text>
  
  <!-- WiFi indication -->
  <text x="645" y="555" text-anchor="middle" font-family="Arial" font-size="12" fill="#0277bd" font-weight="bold">📡 WiFi → NTP/PTP Clients</text>
</svg>
